<svg id="Layer_2" data-name="Layer 2" xmlns="http://www.w3.org/2000/svg" viewBox="0 0 230 122.29"><defs><style>.cls-1{fill:#252829;}</style></defs><title>logo-williams-sonoma-home</title><path class="cls-1" d="M167.75,72c-0.76.08-1.38,0.13-1.88,0.15v1.53h13.44V72.13a11.35,11.35,0,0,1-1.56-.2,4.94,4.94,0,0,1-1.38-.4,2.2,2.2,0,0,1-1-.92,2.82,2.82,0,0,1-.26-1.27V47.43a3.3,3.3,0,0,1,.26-1.31,1.58,1.58,0,0,1,1-.86,10.31,10.31,0,0,1,1.38-.32,11.1,11.1,0,0,1,1.53-.19V43.24h-9.93a10.34,10.34,0,0,1-.31,1.53,18.58,18.58,0,0,1-.69,2.2l-7.43,19.1-8.71-22.83H141.82v1.52a8.24,8.24,0,0,1,1.91.32,4.21,4.21,0,0,1,1.63.86,3.47,3.47,0,0,1,.92,1.38,6.4,6.4,0,0,1,.32,2.21V65.1a21.52,21.52,0,0,1-.28,4.14,3.14,3.14,0,0,1-1,1.84,3.92,3.92,0,0,1-1.64.74,15.77,15.77,0,0,1-2,.32v1.52h12.28V72.13A11.58,11.58,0,0,1,152,71.7a5,5,0,0,1-2-.86,3.72,3.72,0,0,1-1-2,18.19,18.19,0,0,1-.33-4V46.71h0.26l9.88,26.45h1.07l10.37-25.91h0.32V69.36a2.55,2.55,0,0,1-.31,1.32,2.79,2.79,0,0,1-1,.92,4.74,4.74,0,0,1-1.57.36m-3,25.68H153.42v24.08h11.45v-1.84h-9.56V109.63h9.39v-1.76h-9.35V99.38h9.35V97.66h0Zm-41.61-.86-3.22,24.9h2l2.3-19,8.84,20h0.46c1.17-2.54,2.34-5.09,3.47-7.64,0.86-1.93,1.72-3.82,2.58-5.75,0.55-1.17,1.17-2.34,1.69-3.54q0.67-1.5,1.24-3.1l2.2,19.09h2.1l-3.06-25h-0.6l-9.77,21.8c-1.17-2.58-2.37-5.16-3.51-7.77s-2.24-5.12-3.37-7.67c-0.55-1.24-1.17-2.44-1.72-3.68-0.38-.86-0.69-1.72-1-2.58ZM91.95,109.21A10.79,10.79,0,0,1,102.66,99a11.12,11.12,0,0,1,8,3.57,10.91,10.91,0,0,1,2.68,7.08A10.68,10.68,0,1,1,92,109.2m1.38-8A12.59,12.59,0,0,0,94,118.73a13,13,0,0,0,8.63,3.4,12.58,12.58,0,0,0,8.46-21.86l0,0a12.82,12.82,0,0,0-17.76.92m-26-3.47H65.48v24h1.89v-12h14v12.08h1.89V97.66H81.32v10.15h-14V97.69h0Zm97.52-12.56H65.48v1h99.4v-1h0ZM42.3,2.81a4.84,4.84,0,0,1,1.24-.25V1h-11V2.54a9.43,9.43,0,0,1,3.22.66,1.44,1.44,0,0,1,1,1.22,7.6,7.6,0,0,1-.13,1.26q-0.13.74-.64,2.74-0.73,2.83-1.84,6.82t-2.66,9.31L23.78,1.43h-2.1L14.1,24.06q-2.46-8.68-3.72-13T8.64,4.8q0-.22-0.11-0.57a3.34,3.34,0,0,1-.06-0.57q0-.56,1.15-0.79a19,19,0,0,1,2.76-.32V1H0V2.54a7.68,7.68,0,0,1,1.29.23,3.93,3.93,0,0,1,1.26.55,4,4,0,0,1,1,.92,3.8,3.8,0,0,1,.57,1.18l3,10.84,4.39,15.57h1.89l8-23.42,7.68,23.42h2q2.34-7.48,4.35-14.09T39,6.16a5.67,5.67,0,0,1,.81-1.7A4.47,4.47,0,0,1,41,3.38a6,6,0,0,1,1.31-.57m3.94,40.45H44.52l-0.87,1.41a17.82,17.82,0,0,0-3-1.5,10.35,10.35,0,0,0-3.76-.64,10.06,10.06,0,0,0-3.54.63,9.11,9.11,0,0,0-2.93,1.75,8.42,8.42,0,0,0-2,2.68,7.49,7.49,0,0,0-.71,3.22,7.87,7.87,0,0,0,1.43,4.89,10.08,10.08,0,0,0,4,3q1.31,0.6,3.11,1.27t3.19,1.23a6.33,6.33,0,0,1,3.06,2.4,6.1,6.1,0,0,1,1,3.4,6.69,6.69,0,0,1-.33,2.2,4.48,4.48,0,0,1-1,1.67A4.52,4.52,0,0,1,40.34,72a7.84,7.84,0,0,1-2.59.39,7.6,7.6,0,0,1-3.46-.75,8.61,8.61,0,0,1-2.6-2,12.17,12.17,0,0,1-1.89-2.85,23,23,0,0,1-1.26-3.48H26.8l0.3,10.38h1.72l0.92-1.56a15.79,15.79,0,0,0,3.51,1.56,13.7,13.7,0,0,0,4.07.63,10.81,10.81,0,0,0,7.4-2.61,8.46,8.46,0,0,0,3-6.65,8.74,8.74,0,0,0-.46-3,7.11,7.11,0,0,0-1.43-2.35,9.36,9.36,0,0,0-2.07-1.65,22,22,0,0,0-2.47-1.27q-1.41-.62-2.93-1.17a33.23,33.23,0,0,1-3.08-1.29,6.74,6.74,0,0,1-2.68-2.13,5.52,5.52,0,0,1-.92-3.27,4.14,4.14,0,0,1,1.44-3.19,5,5,0,0,1,3.47-1.31,6.62,6.62,0,0,1,3.25.7,7,7,0,0,1,2.25,2A11.76,11.76,0,0,1,43.6,50q0.59,1.59,1.06,3.33H46.4Zm-0.77-11.8H59.16V29.91a10.77,10.77,0,0,1-1.73-.23A10,10,0,0,1,56,29.31a2.12,2.12,0,0,1-1.06-.87,2.48,2.48,0,0,1-.31-1.25v-22a2.91,2.91,0,0,1,.28-1.28A1.69,1.69,0,0,1,56,3.06a11,11,0,0,1,1.61-.35,13.73,13.73,0,0,1,1.59-.16V1H45.47V2.54a10.71,10.71,0,0,1,1.6.27,11.21,11.21,0,0,1,1.62.46,1.92,1.92,0,0,1,1.11.85A3,3,0,0,1,50,5.37v22a2.4,2.4,0,0,1-.32,1.34,2.11,2.11,0,0,1-1,.76,6.16,6.16,0,0,1-1.55.26l-1.67.13v1.57ZM60.89,45.59a7.82,7.82,0,0,1,4.37-1.18,8.05,8.05,0,0,1,4.07,1,8.56,8.56,0,0,1,3,2.84,14.26,14.26,0,0,1,1.79,4.46A27.64,27.64,0,0,1,74.15,64a14.22,14.22,0,0,1-1.75,4.42,8.37,8.37,0,0,1-3,3,8.06,8.06,0,0,1-4.14,1.07,8,8,0,0,1-4.2-1.06,8.64,8.64,0,0,1-2.92-2.95,14.11,14.11,0,0,1-1.76-4.42,25.57,25.57,0,0,1-.55-5.58,26.06,26.06,0,0,1,.52-5.31A15.05,15.05,0,0,1,58,48.74a9.16,9.16,0,0,1,2.93-3.15m4.37-3.09a14.35,14.35,0,0,0-5.56,1.12A13.77,13.77,0,0,0,55,46.84a15.43,15.43,0,0,0-3.19,5,17.78,17.78,0,0,0-1.18,6.61,18.08,18.08,0,0,0,1.1,6.35,15,15,0,0,0,3,5.06,13.6,13.6,0,0,0,4.6,3.31,14.87,14.87,0,0,0,11.5.07,13.92,13.92,0,0,0,4.63-3.17,14.62,14.62,0,0,0,3.22-5,17.9,17.9,0,0,0,1.16-6.58,18.26,18.26,0,0,0-1.14-6.57,14.93,14.93,0,0,0-3.15-5.06A13.62,13.62,0,0,0,71,43.67a14.44,14.44,0,0,0-5.7-1.14m21.4-11.07,0.63-9.07H85.79a21.31,21.31,0,0,1-1.62,3.25,19.15,19.15,0,0,1-2,3,2.2,2.2,0,0,1-.92.57,8.28,8.28,0,0,1-1.38.35,14.29,14.29,0,0,1-1.63.17q-0.86,0-1.65,0a24.22,24.22,0,0,1-2.73-.12,3,3,0,0,1-1.47-.5,2,2,0,0,1-.68-1.21,13.25,13.25,0,0,1-.14-2.19V5.31A3.32,3.32,0,0,1,71.79,4a1.6,1.6,0,0,1,1-.88,11.5,11.5,0,0,1,1.38-.35,9.91,9.91,0,0,1,1.55-.22V1H62.89V2.54a8,8,0,0,1,1.47.29,7.31,7.31,0,0,1,1.38.51,1.86,1.86,0,0,1,1,.92A3.15,3.15,0,0,1,67,5.54V27.3a2.87,2.87,0,0,1-.29,1.38,1.84,1.84,0,0,1-.92.81,5.18,5.18,0,0,1-1.38.28l-1.49.15v1.52H86.67Zm18.82,35L88.4,43.26h-8.7v1.52a7.44,7.44,0,0,1,2.13.55,6.53,6.53,0,0,1,2.09,1.21,3.68,3.68,0,0,1,.92,1.52,6,6,0,0,1,.35,2V65a21.67,21.67,0,0,1-.28,4.21,3.13,3.13,0,0,1-1,1.84,5.19,5.19,0,0,1-1.72.68,12,12,0,0,1-2,.42v1.49H92.69V72.13a12.3,12.3,0,0,1-2-.43,5,5,0,0,1-2-.88,3.75,3.75,0,0,1-1-2,18.74,18.74,0,0,1-.33-4V49.07L105.7,73.95h1.84V51.68a22.89,22.89,0,0,1,.27-3.86,3,3,0,0,1,1-2.06,6.56,6.56,0,0,1,1.78-.67,9.66,9.66,0,0,1,1.84-.34V43.24H100.12v1.52a10.68,10.68,0,0,1,2.07.43,7.19,7.19,0,0,1,2,.79,3.21,3.21,0,0,1,1,1.9,18.5,18.5,0,0,1,.35,4.08V66.45Zm8.24-35,0.64-9h-1.52a21.28,21.28,0,0,1-1.63,3.22,19.18,19.18,0,0,1-2,3,2.2,2.2,0,0,1-.92.57,8.24,8.24,0,0,1-1.38.35,14.26,14.26,0,0,1-1.63.17q-0.86,0-1.65,0a24.25,24.25,0,0,1-2.73-.12,3,3,0,0,1-1.47-.5,2,2,0,0,1-.65-1.21,13.2,13.2,0,0,1-.14-2.19V5.31A3.3,3.3,0,0,1,98.87,4a1.6,1.6,0,0,1,1-.88,11.5,11.5,0,0,1,1.38-.35,9.93,9.93,0,0,1,1.55-.22V1H90V2.54a8,8,0,0,1,1.49.27,7.3,7.3,0,0,1,1.38.51,1.87,1.87,0,0,1,1,.92A3.14,3.14,0,0,1,94,5.52V27.3a2.88,2.88,0,0,1-.29,1.38,1.84,1.84,0,0,1-.93.81,5.19,5.19,0,0,1-1.38.28L90,29.92v1.52h23.78Zm3.11,0h13.7V29.91a10.77,10.77,0,0,1-1.73-.23,10,10,0,0,1-1.47-.38,2.12,2.12,0,0,1-1.06-.87,2.49,2.49,0,0,1-.35-1.25v-22a2.94,2.94,0,0,1,.28-1.28,1.7,1.7,0,0,1,1.1-.84,11,11,0,0,1,1.61-.35,13.76,13.76,0,0,1,1.61-.16V1H116.83V2.54a10.75,10.75,0,0,1,1.6.27,11.25,11.25,0,0,1,1.62.46,1.92,1.92,0,0,1,1.11.85,3,3,0,0,1,.23,1.25v22a2.4,2.4,0,0,1-.32,1.34,2.12,2.12,0,0,1-1,.76,6.17,6.17,0,0,1-1.55.26l-1.67.13v1.52Zm19.4,27A25.46,25.46,0,0,1,135.7,64a14.22,14.22,0,0,1-1.75,4.42,8.37,8.37,0,0,1-3,3,8.68,8.68,0,0,1-8.34,0,8.65,8.65,0,0,1-2.92-2.95,14.15,14.15,0,0,1-1.76-4.42,25.59,25.59,0,0,1-.55-5.58,26,26,0,0,1,.52-5.31,15,15,0,0,1,1.6-4.42,9.15,9.15,0,0,1,2.93-3.15,7.82,7.82,0,0,1,4.37-1.18,8.05,8.05,0,0,1,4.07,1,8.57,8.57,0,0,1,3,2.84,14.3,14.3,0,0,1,1.79,4.46,25.3,25.3,0,0,1,.62,5.75m0.92-11.64a13.63,13.63,0,0,0-4.63-3.19,14.72,14.72,0,0,0-11.28,0,13.77,13.77,0,0,0-4.68,3.22,15.42,15.42,0,0,0-3.19,5,17.78,17.78,0,0,0-1.18,6.59,18.07,18.07,0,0,0,1.1,6.35,15,15,0,0,0,3,5.06,13.58,13.58,0,0,0,4.6,3.31,14.87,14.87,0,0,0,11.5.07,13.91,13.91,0,0,0,4.63-3.17,14.61,14.61,0,0,0,3.22-5,17.91,17.91,0,0,0,1.16-6.58,18.26,18.26,0,0,0-1.14-6.57,15,15,0,0,0-3.15-5.06M152.87,19h-9.15l4.54-11.8Zm-0.4,12.42h12.64V29.91a6.61,6.61,0,0,1-1.33-.23,4.77,4.77,0,0,1-1.29-.5,5.06,5.06,0,0,1-1.13-1,5.18,5.18,0,0,1-.73-1.35L150.52,0.6H148.8q-2.17,5.57-4.93,12.71t-5.06,12.88a8,8,0,0,1-.92,1.75,5.43,5.43,0,0,1-1.37,1.18,4.55,4.55,0,0,1-1.38.55,8.93,8.93,0,0,1-1.38.25v1.52h11.45V29.91a10.85,10.85,0,0,1-3-.56A1.57,1.57,0,0,1,140.83,28a5.36,5.36,0,0,1,.11-0.92,14.46,14.46,0,0,1,.39-1.5q0.3-.94.68-2.06t1-2.64h10.68l2.52,6.81a2.33,2.33,0,0,1,.13.49,3.28,3.28,0,0,1,0,.46q0,0.46-1.1.8a13.24,13.24,0,0,1-2.76.43v1.52h0Zm39.54,0h13.44V29.91a11.63,11.63,0,0,1-1.56-.2,4.94,4.94,0,0,1-1.38-.4,2.19,2.19,0,0,1-1-.92,2.82,2.82,0,0,1-.26-1.27V5.22a3.3,3.3,0,0,1,.26-1.31,1.57,1.57,0,0,1,1-.86,10,10,0,0,1,1.38-.32,10.92,10.92,0,0,1,1.53-.19V1h-9.93a10.31,10.31,0,0,1-.31,1.53,18.9,18.9,0,0,1-.69,2.2L187,23.85,178.33,1H168V2.54a8.19,8.19,0,0,1,1.91.32,4.23,4.23,0,0,1,1.62.87,3.45,3.45,0,0,1,.92,1.38,6.37,6.37,0,0,1,.32,2.21V22.88a21.39,21.39,0,0,1-.28,4.14,3.15,3.15,0,0,1-1,1.84,3.93,3.93,0,0,1-1.64.71,15.75,15.75,0,0,1-2,.32v1.52H180v-1.5a11.89,11.89,0,0,1-1.93-.43,5,5,0,0,1-2-.86,3.72,3.72,0,0,1-1-2,18.14,18.14,0,0,1-.33-4V4.49h0.28L185,30.94h1.07L196.42,5h0.32V27.15a2.56,2.56,0,0,1-.31,1.32,2.81,2.81,0,0,1-1,.92,4.75,4.75,0,0,1-1.58.36q-1.15.13-1.87,0.15v1.52h0Zm8.35,29.81h-9.15l4.54-11.8Zm8.49,9.17a5.1,5.1,0,0,1-.73-1.35L198,42.83h-1.72l-4.93,12.71q-2.76,7.13-5.06,12.88a8,8,0,0,1-.92,1.74A5.43,5.43,0,0,1,184,71.38a4.53,4.53,0,0,1-1.38.55,8.86,8.86,0,0,1-1.38.25v1.48h11.45V72.13a10.86,10.86,0,0,1-3-.56,1.57,1.57,0,0,1-1.35-1.33,5.35,5.35,0,0,1,.11-0.92,14.63,14.63,0,0,1,.39-1.5q0.3-.94.68-2.06t1-2.61h10.68L203.68,70a2.3,2.3,0,0,1,.13.49,3.4,3.4,0,0,1,0,.46q0,0.46-1.1.79a13.2,13.2,0,0,1-2.76.43v1.51h12.64V72.13a6.54,6.54,0,0,1-1.33-.23A4.76,4.76,0,0,1,210,71.4a4.94,4.94,0,0,1-1.14-1m6-60.42A5.52,5.52,0,0,1,214,6.7a4.14,4.14,0,0,1,1.44-3.19,5,5,0,0,1,3.46-1.31,6.61,6.61,0,0,1,3.26.74,7,7,0,0,1,2.26,2,11.77,11.77,0,0,1,1.53,2.87q0.59,1.59,1.06,3.32h1.73L228.53,1h-1.7l-0.88,1.46a18,18,0,0,0-3-1.51,10.36,10.36,0,0,0-3.76-.64,10,10,0,0,0-3.54.64,9.12,9.12,0,0,0-2.93,1.75,8.45,8.45,0,0,0-2,2.68A7.48,7.48,0,0,0,210,8.62a7.86,7.86,0,0,0,1.43,4.89,10.09,10.09,0,0,0,4,3q1.31,0.6,3.11,1.27T221.68,19a6.34,6.34,0,0,1,3.07,2.39,6.12,6.12,0,0,1,1,3.41,6.69,6.69,0,0,1-.33,2.2,4.32,4.32,0,0,1-2.81,2.76,7.82,7.82,0,0,1-2.59.39,7.6,7.6,0,0,1-3.46-.75,8.62,8.62,0,0,1-2.6-2,12.16,12.16,0,0,1-1.9-2.91A23,23,0,0,1,210.83,21H209.1l0.3,10.41h1.72L212,29.89a15.75,15.75,0,0,0,3.51,1.53,13.67,13.67,0,0,0,4.07.63A10.81,10.81,0,0,0,227,29.44a8.46,8.46,0,0,0,3-6.64,8.7,8.7,0,0,0-.46-3,7.1,7.1,0,0,0-1.43-2.35A9.34,9.34,0,0,0,226,15.83a21.8,21.8,0,0,0-2.47-1.27q-1.42-.62-2.93-1.17a33.2,33.2,0,0,1-3.08-1.3A6.74,6.74,0,0,1,214.87,10" transform="translate(0.01 -0.33)"/></svg>